<?xml version="1.0" encoding="UTF-8"?>
<svg width="231px" height="179px" viewBox="0 0 231 179" version="1.1" xmlns="http://www.w3.org/2000/svg" xmlns:xlink="http://www.w3.org/1999/xlink">
    <!-- Generator: Sketch 51.3 (57544) - http://www.bohemiancoding.com/sketch -->
    <title>Mask</title>
    <desc>Created with Sketch.</desc>
    <defs>
        <path d="M229.120178,0.516879005 L208.086514,0.516879005 C206.700822,0.516879005 204.843422,1.39098466 203.959228,2.4591382 L134.494889,86.421941 L124.877353,77.30169 L186.797621,2.4591382 C187.680628,1.39098466 187.269922,0.516879005 185.883697,0.516879005 L149.165918,0.516879005 C147.779693,0.516879005 145.922292,1.39098466 145.038098,2.4591382 L101.477076,55.1125803 L45.7318634,2.25084826 C44.7260781,1.29722451 42.7689241,0.516879005 41.3826982,0.516879005 L3.06209634,0.516879005 C1.67646383,0.516879005 1.36551246,1.29722451 2.37082297,2.25084826 L82.4146298,78.1538391 L0.9655483,176.600804 C0.0825413698,177.668958 0.493187066,178.54247 1.879413,178.54247 L38.5977845,178.54247 C39.9840698,178.54247 41.8408767,177.668364 42.7250111,176.600804 L105.814313,100.344136 L115.431909,109.4632 L59.8872715,176.600804 C59.0031371,177.668958 59.4143168,178.54247 60.8011362,178.54247 L81.8343257,178.54247 C83.2204923,178.54247 85.0778926,177.668364 85.9615523,176.600804 L130.043003,123.318932 L186.450411,176.809094 C187.456849,177.762718 189.41341,178.543063 190.80017,178.543063 L229.119585,178.543063 C230.506404,178.543063 230.816762,177.763311 229.812104,176.809094 L149.106577,100.277079 L230.034043,2.4591382 C230.917643,1.39098466 230.506998,0.516879005 229.120178,0.516879005" id="path-1"></path>
    </defs>
    <g id="Symbols" stroke="none" stroke-width="1" fill="none" fill-rule="evenodd">
        <g id="icon/x-logo" transform="translate(-13.000000, -38.000000)">
            <g id="Group-3">
                <g transform="translate(13.000000, 38.000000)">
                    <g id="icon/mark-color/white">
                        <mask id="mask-2" fill="white">
                            <use xlink:href="#path-1"></use>
                        </mask>
                        <use id="Mask" fill="#383838" xlink:href="#path-1"></use>
                    </g>
                </g>
            </g>
        </g>
    </g>
</svg>